<?xml version="1.0" encoding="UTF-8"?> <svg xmlns="http://www.w3.org/2000/svg" xmlns:v="https://vecta.io/nano" viewBox="0 0 718.02 239.03"><path d="M243.7 22.5v35.33l.16 4a25.08 25.08 0 0 0 .83 4.75 24.61 24.61 0 0 0 1.86 4.78 14.13 14.13 0 0 0 3.26 4.21 15.56 15.56 0 0 0 5.07 3 21.26 21.26 0 0 0 7.31 1.11 23.8 23.8 0 0 0 9.12-1.53 14.55 14.55 0 0 0 5.94-4.37 17.55 17.55 0 0 0 3.26-6.89 38.33 38.33 0 0 0 1-9.08V22.5h3.64v35.33a41.29 41.29 0 0 1-1.16 9.82 20.61 20.61 0 0 1-3.75 7.92 18 18 0 0 1-7.06 5.33 27.53 27.53 0 0 1-11 1.94 27 27 0 0 1-8.92-1.32 19.26 19.26 0 0 1-6.15-3.43 16 16 0 0 1-3.83-4.83 27.68 27.68 0 0 1-3.06-10.85l-.16-4.58V22.5zm55.07 26.25h.23a15.83 15.83 0 0 1 1.66-3.47 14 14 0 0 1 3.05-3.51A16.26 16.26 0 0 1 314.45 38a18.51 18.51 0 0 1 8.46 1.81 17.16 17.16 0 0 1 5.94 4.87 20.89 20.89 0 0 1 3.51 7.1 30.83 30.83 0 0 1 1.16 8.5 32.43 32.43 0 0 1-1.16 8.92 19.58 19.58 0 0 1-3.52 7 16.08 16.08 0 0 1-6 4.58 20.14 20.14 0 0 1-8.48 1.65 19 19 0 0 1-9.36-2.32 13.48 13.48 0 0 1-6-7.51h-.16v24h-3.06V39h3.06zm15.64 31a15.31 15.31 0 0 0 7.16-1.57 14.18 14.18 0 0 0 5-4.21 18.4 18.4 0 0 0 2.9-6.15 28.63 28.63 0 0 0 .95-7.47 28.19 28.19 0 0 0-.91-7.14 19.87 19.87 0 0 0-2.81-6.27 14.5 14.5 0 0 0-4.93-4.46 16.62 16.62 0 0 0-14.52 0 13.89 13.89 0 0 0-4.84 4.38 18.15 18.15 0 0 0-2.73 6.14 31.24 31.24 0 0 0-.83 7.3 35.6 35.6 0 0 0 .74 7.31 17.75 17.75 0 0 0 2.53 6.19 12.8 12.8 0 0 0 4.8 4.29 15.81 15.81 0 0 0 7.49 1.61zm27.94-12.43a13 13 0 0 0 1.32 5.24 12.42 12.42 0 0 0 7.33 6.31 16.59 16.59 0 0 0 5.36.83 28.12 28.12 0 0 0 4.42-.37 15.37 15.37 0 0 0 4.39-1.33 9.11 9.11 0 0 0 3.35-2.77 7.32 7.32 0 0 0 1.32-4.5 6.64 6.64 0 0 0-2.15-5.36 15 15 0 0 0-5.41-2.81 54.33 54.33 0 0 0-7-1.61 35.73 35.73 0 0 1-7-1.86 14.35 14.35 0 0 1-5.41-3.5c-1.43-1.52-2.14-3.73-2.14-6.65a9.28 9.28 0 0 1 1.4-5.24 10.44 10.44 0 0 1 3.59-3.34 16.3 16.3 0 0 1 4.91-1.78 28 28 0 0 1 5.45-.53 24.54 24.54 0 0 1 6.19.74 13.35 13.35 0 0 1 5 2.39 11.48 11.48 0 0 1 3.3 4.21 14.51 14.51 0 0 1 1.2 6.19h-3.17a11.85 11.85 0 0 0-1-4.95 8.6 8.6 0 0 0-2.6-3.37 11.37 11.37 0 0 0-4-1.9 18.75 18.75 0 0 0-4.95-.62 23.76 23.76 0 0 0-4.33.41 12.57 12.57 0 0 0-3.92 1.4 8.9 8.9 0 0 0-2.8 2.56 6.43 6.43 0 0 0-1.11 3.8 6.51 6.51 0 0 0 1.18 4.09 9 9 0 0 0 3.26 2.52 22.39 22.39 0 0 0 4.54 1.52l5.13 1.2 5.9 1.36a16.47 16.47 0 0 1 4.79 2.15 9.63 9.63 0 0 1 3.18 3.5A11.46 11.46 0 0 1 373 70.7a9.73 9.73 0 0 1-1.56 5.7 12.21 12.21 0 0 1-4 3.59 16.76 16.76 0 0 1-5.32 1.9 32.52 32.52 0 0 1-5.74.53 22.67 22.67 0 0 1-6.73-1 15.25 15.25 0 0 1-5.4-2.88 13.85 13.85 0 0 1-3.63-4.75 16.12 16.12 0 0 1-1.41-6.52zm39.37-6.7v.5a25.22 25.22 0 0 0 1 7.1 18.55 18.55 0 0 0 2.94 5.94 13.93 13.93 0 0 0 4.89 4 14.9 14.9 0 0 0 6.82 1.49q6.38 0 10.1-3.34a17.55 17.55 0 0 0 5.13-9.29h3.14q-1.4 7.43-6.07 11.4-4.66 3.96-12.34 4a18.69 18.69 0 0 1-8.21-1.69 16.77 16.77 0 0 1-5.86-4.62 19.54 19.54 0 0 1-3.51-6.93 31 31 0 0 1-1.15-8.63 30.12 30.12 0 0 1 1.18-8.55 21.67 21.67 0 0 1 3.59-7.19 17.84 17.84 0 0 1 6-5 18.14 18.14 0 0 1 8.45-1.81 17.94 17.94 0 0 1 7.88 1.65 16.62 16.62 0 0 1 5.74 4.49 20.14 20.14 0 0 1 3.56 6.63 26.6 26.6 0 0 1 1.19 8v1.86zm31.2-2.72a25 25 0 0 0-1.16-6.56 16.27 16.27 0 0 0-2.93-5.45 14.69 14.69 0 0 0-4.72-3.76 13.9 13.9 0 0 0-6.33-1.4 14.89 14.89 0 0 0-6.71 1.44 15.19 15.19 0 0 0-4.88 3.8 17.08 17.08 0 0 0-3.06 5.49 25.8 25.8 0 0 0-1.33 6.44zm14.38-35.4v58.93h-3.14V22.5zm13.85 0v58.93H438V22.5zm33.52 0h37v3.13H478.3v23.6h30v3.14h-30v29.05h-3.63zm73.46 58.93H545v-9.08h-.16a13.62 13.62 0 0 1-2.35 4.25 15.6 15.6 0 0 1-8 5.16 18.27 18.27 0 0 1-4.87.66 19.41 19.41 0 0 1-6.31-.9 12.38 12.38 0 0 1-4.25-2.4 11.31 11.31 0 0 1-2.6-3.34 15.38 15.38 0 0 1-1.35-3.78 22.05 22.05 0 0 1-.49-3.67l-.08-3.1V39h3.13v26.83a38 38 0 0 0 .25 4 12.29 12.29 0 0 0 1.44 4.54 10.61 10.61 0 0 0 3.6 3.75 12.25 12.25 0 0 0 6.76 1.57 15 15 0 0 0 6.4-1.32 13.91 13.91 0 0 0 4.88-3.66 16.21 16.21 0 0 0 3-5.62 23.46 23.46 0 0 0 1-7.09V39h3.14zM557.38 39h3.13v9.08h.17a13.58 13.58 0 0 1 2.32-4.25 15.79 15.79 0 0 1 3.55-3.17 15.61 15.61 0 0 1 4.42-2 18.16 18.16 0 0 1 4.87-.66 19.41 19.41 0 0 1 6.31.9 12.48 12.48 0 0 1 4.25 2.4 11.48 11.48 0 0 1 2.6 3.34 15.34 15.34 0 0 1 1.36 3.76 22.1 22.1 0 0 1 .5 3.67l.08 3.1v26.27h-3.14V54.6c0-1-.08-2.37-.24-4a12.14 12.14 0 0 0-1.45-4.58 10.45 10.45 0 0 0-3.63-3.75 12.32 12.32 0 0 0-6.73-1.57 15 15 0 0 0-6.44 1.32 13.89 13.89 0 0 0-4.78 3.67 16.23 16.23 0 0 0-3 5.62 23.78 23.78 0 0 0-1 7.14v22.97h-3.13zm42.82 0h3.14v9.08h.17a13.58 13.58 0 0 1 2.35-4.26 15.79 15.79 0 0 1 3.55-3.17 15.61 15.61 0 0 1 4.42-2 18.16 18.16 0 0 1 4.87-.66 19.41 19.41 0 0 1 6.31.9 12.48 12.48 0 0 1 4.25 2.4 11.48 11.48 0 0 1 2.6 3.34 15.34 15.34 0 0 1 1.36 3.76 22.1 22.1 0 0 1 .5 3.67l.08 3.1v26.28h-3.14V54.6c0-1-.08-2.37-.24-4a12.14 12.14 0 0 0-1.43-4.55 10.45 10.45 0 0 0-3.63-3.75 12.32 12.32 0 0 0-6.73-1.57 15 15 0 0 0-6.44 1.32 13.89 13.89 0 0 0-4.78 3.67 16.23 16.23 0 0 0-3 5.62 23.78 23.78 0 0 0-1 7.14v22.94h-3.14zm44 21.63v.5a24.86 24.86 0 0 0 1 7.1 18.33 18.33 0 0 0 2.93 5.94 13.93 13.93 0 0 0 4.89 4 14.9 14.9 0 0 0 6.82 1.49q6.38 0 10.1-3.34a17.55 17.55 0 0 0 5.13-9.29h3.14q-1.4 7.43-6.07 11.4-4.66 3.96-12.34 4a18.69 18.69 0 0 1-8.21-1.69 16.77 16.77 0 0 1-5.86-4.62 19.54 19.54 0 0 1-3.51-6.93 31 31 0 0 1-1.15-8.63 30.12 30.12 0 0 1 1.19-8.55 21.67 21.67 0 0 1 3.59-7.19 17.84 17.84 0 0 1 6-5 18.14 18.14 0 0 1 8.45-1.81 17.94 17.94 0 0 1 7.88 1.65 16.62 16.62 0 0 1 5.74 4.49 20.14 20.14 0 0 1 3.51 6.61 26.6 26.6 0 0 1 1.19 8v1.86zm31.2-2.72a25 25 0 0 0-1.16-6.56 16.27 16.27 0 0 0-2.93-5.45 14.69 14.69 0 0 0-4.72-3.76 13.9 13.9 0 0 0-6.33-1.4 14.89 14.89 0 0 0-6.71 1.44 15.19 15.19 0 0 0-4.88 3.8 17.08 17.08 0 0 0-3.06 5.49 25.8 25.8 0 0 0-1.33 6.44zm14.38-35.4v58.93h-3.14V22.5z" fill="#2e3842"></path><g fill="#375eef"><path d="M254.9 155.27a29.51 29.51 0 0 0 1.26 8.61 21.3 21.3 0 0 0 3.79 7.28 18.08 18.08 0 0 0 6.39 5 21 21 0 0 0 9.21 1.86q7.43 0 11.95-3.2a18.84 18.84 0 0 0 6.76-9.58h16a31.88 31.88 0 0 1-4.6 11.14 32.36 32.36 0 0 1-7.87 8.24 34 34 0 0 1-10.33 5.05 41.45 41.45 0 0 1-11.95 1.71 40.65 40.65 0 0 1-16-3 33.1 33.1 0 0 1-11.81-8.32 35.17 35.17 0 0 1-7.28-12.77A52 52 0 0 1 238 151a46.26 46.26 0 0 1 2.6-15.52 39.63 39.63 0 0 1 7.4-12.96 34.84 34.84 0 0 1 27.1-12.11 34.4 34.4 0 0 1 16.27 3.79 35.73 35.73 0 0 1 11.95 10 40.66 40.66 0 0 1 6.91 14.34 44.11 44.11 0 0 1 1.11 16.71zm39.5-11.14a27.43 27.43 0 0 0-1.71-7.73 20.78 20.78 0 0 0-3.86-6.46 19.19 19.19 0 0 0-5.94-4.45 17.51 17.51 0 0 0-7.8-1.71 20.3 20.3 0 0 0-8.09 1.56 18.35 18.35 0 0 0-6.24 4.31 21.28 21.28 0 0 0-4.16 6.46 22.53 22.53 0 0 0-1.71 8zm29.87-31.64h16.05v11.3l.3.3a28.51 28.51 0 0 1 10.1-10 27 27 0 0 1 13.82-3.64q12.62 0 19.9 6.54 7.28 6.54 7.28 19.6v52.73h-16.94V141q-.3-9.06-3.86-13.15-3.56-4.1-11.14-4.08a18.36 18.36 0 0 0-7.72 1.56 16.59 16.59 0 0 0-5.79 4.31 20.06 20.06 0 0 0-3.72 6.46 23.06 23.06 0 0 0-1.33 7.87v45.3h-16.94zm156.25 72.78q0 17.37-9.73 25.92-9.73 8.55-28 8.54a58.71 58.71 0 0 1-11.66-1.19 34.85 34.85 0 0 1-10.7-4 25.86 25.86 0 0 1-8.09-7.43 22.5 22.5 0 0 1-3.86-11.29h16.93a13.63 13.63 0 0 0 2.52 5.8 13.16 13.16 0 0 0 4.24 3.49 16.15 16.15 0 0 0 5.42 1.63 49.85 49.85 0 0 0 6.24.37q10.25 0 15-5 4.75-5 4.75-14.55v-11.8h-.3a25.64 25.64 0 0 1-9.73 10 26 26 0 0 1-13.29 3.57 35.08 35.08 0 0 1-15.67-3.19 29.72 29.72 0 0 1-10.69-8.77 36.46 36.46 0 0 1-6.17-12.84 61 61 0 0 1-1.93-15.6 45.38 45.38 0 0 1 2.38-14.7 37.43 37.43 0 0 1 6.82-12.31 32.77 32.77 0 0 1 10.92-8.39 33.22 33.22 0 0 1 14.63-3.12 29.49 29.49 0 0 1 13.37 3 20.64 20.64 0 0 1 9.35 9.58h.3v-10.5h16.93zM443 175.9a17.94 17.94 0 0 0 16-8.39 26.94 26.94 0 0 0 3.57-8.61 43.35 43.35 0 0 0 1.11-9.73 38 38 0 0 0-1.19-9.51 25.41 25.41 0 0 0-3.64-8.17 17.65 17.65 0 0 0-6.38-5.64 19.92 19.92 0 0 0-9.43-2.08 17.84 17.84 0 0 0-9.51 2.37 19 19 0 0 0-6.24 6.17 26.62 26.62 0 0 0-3.41 8.61 45 45 0 0 0-1 9.58 36.57 36.57 0 0 0 1.18 9.29 25.91 25.91 0 0 0 3.64 8.09 19.43 19.43 0 0 0 6.24 5.79 17.69 17.69 0 0 0 9.06 2.23zm95.9-63.42h16v11.3l.3.3a28.42 28.42 0 0 1 10.1-10 27 27 0 0 1 13.81-3.64q12.63 0 19.9 6.54 7.28 6.54 7.27 19.6v52.73h-16.9V141q-.3-9.06-3.86-13.15-3.56-4.1-11.14-4.08a18.36 18.36 0 0 0-7.72 1.56 16.72 16.72 0 0 0-5.8 4.31 20.23 20.23 0 0 0-3.71 6.46 23.07 23.07 0 0 0-1.34 7.87v45.3H538.9zm98.47 42.78a29.18 29.18 0 0 0 1.27 8.61 21.28 21.28 0 0 0 3.78 7.28 18.17 18.17 0 0 0 6.39 5A21 21 0 0 0 658 178q7.43 0 12-3.2a18.84 18.84 0 0 0 6.76-9.58h16a31.8 31.8 0 0 1-12.47 19.38 33.92 33.92 0 0 1-10.29 5.04 41.45 41.45 0 0 1-12 1.71 40.65 40.65 0 0 1-16-3 33.19 33.19 0 0 1-11.81-8.32 35.32 35.32 0 0 1-7.28-12.77 52 52 0 0 1-2.48-16.27 46.26 46.26 0 0 1 2.6-15.52 39.63 39.63 0 0 1 7.43-12.92 34.84 34.84 0 0 1 27.1-12.11 34.4 34.4 0 0 1 16.27 3.79 35.73 35.73 0 0 1 11.95 10 40.66 40.66 0 0 1 6.91 14.34 43.91 43.91 0 0 1 1.11 16.71zm39.5-11.14a27.43 27.43 0 0 0-1.71-7.73 20.78 20.78 0 0 0-3.86-6.46 19.07 19.07 0 0 0-5.94-4.45 17.51 17.51 0 0 0-7.8-1.71 20.3 20.3 0 0 0-8.09 1.56 18.35 18.35 0 0 0-6.24 4.31 21.28 21.28 0 0 0-4.16 6.46 22.53 22.53 0 0 0-1.71 8zM501.88 110.6h16.93v16.04h-16.93zm0 22.2h16.93v56.47h-16.93z"></path><rect x="26.44" y="23" width="170.41" height="170" rx="23.37"></rect></g><circle cx="111.64" cy="108" r="65.24" fill="#fff"></circle><g fill="#375eef"><path d="M142.8 129.3l-11.28 11.28a34.61 34.61 0 0 1-48.94 0l15.06-15.06a13.32 13.32 0 0 0 18.82 0l11.25-11.25"></path><rect x="136.7" y="101.7" width="15.97" height="21.29" rx="2.04" transform="matrix(.707107 -.707107 .707107 .707107 -37.06 135.21)"></rect><rect x="102.82" y="67.82" width="15.97" height="21.29" rx="2.04" transform="matrix(.707107 -.707107 .707107 .707107 -23.03 101.33)"></rect><path d="M88.4 99.14l2.4-16.64-3.2 3.62L65.43 112l15.43 2.22-2.24 15.65 25.23-28.48z"></path></g></svg> 